<svg width="256" height="256" viewBox="0 0 256 256" fill="none" xmlns="http://www.w3.org/2000/svg">
  <defs>
    <linearGradient id="sensorHaloAccentProduction" x1="128" y1="26" x2="128" y2="230" gradientUnits="userSpaceOnUse">
      <stop stop-color="#67F0FF"/>
      <stop offset="1" stop-color="#DF7AFE"/>
    </linearGradient>
  </defs>

  <g stroke="url(#sensorHaloAccentProduction)" stroke-width="8.5" stroke-linecap="round">
    <line x1="128" y1="18" x2="128" y2="36"/>
    <line x1="128" y1="18" x2="128" y2="36" transform="rotate(30 128 128)"/>
    <line x1="128" y1="18" x2="128" y2="36" transform="rotate(60 128 128)"/>
    <line x1="128" y1="18" x2="128" y2="36" transform="rotate(90 128 128)"/>
    <line x1="128" y1="18" x2="128" y2="36" transform="rotate(120 128 128)"/>
    <line x1="128" y1="18" x2="128" y2="36" transform="rotate(150 128 128)"/>
    <line x1="128" y1="18" x2="128" y2="36" transform="rotate(180 128 128)"/>
    <line x1="128" y1="18" x2="128" y2="36" transform="rotate(210 128 128)"/>
    <line x1="128" y1="18" x2="128" y2="36" transform="rotate(240 128 128)"/>
    <line x1="128" y1="18" x2="128" y2="36" transform="rotate(270 128 128)"/>
    <line x1="128" y1="18" x2="128" y2="36" transform="rotate(300 128 128)"/>
    <line x1="128" y1="18" x2="128" y2="36" transform="rotate(330 128 128)"/>
  </g>

  <circle cx="128" cy="128" r="88" stroke="#FAF6FF" stroke-width="10"/>
  <circle cx="128" cy="128" r="46" stroke="#FAF6FF" stroke-width="10"/>
  <circle cx="128" cy="128" r="18" fill="#FAF6FF"/>
  <path d="M92 104C82 114 82 142 92 152" stroke="url(#sensorHaloAccentProduction)" stroke-width="12" stroke-linecap="round"/>
  <path d="M164 104C174 114 174 142 164 152" stroke="url(#sensorHaloAccentProduction)" stroke-width="12" stroke-linecap="round"/>
</svg>
