<svg width="620" height="128" viewBox="0 0 620 128" fill="none" xmlns="http://www.w3.org/2000/svg">
  <defs>
    <linearGradient id="climbVectorSurfaceLockup" x1="24" y1="18" x2="104" y2="110" gradientUnits="userSpaceOnUse">
      <stop stop-color="#F7EEFF"/>
      <stop offset="0.5" stop-color="#D899FF"/>
      <stop offset="1" stop-color="#8B53D8"/>
    </linearGradient>
  </defs>

  <rect x="16" y="16" width="96" height="96" rx="28" fill="url(#climbVectorSurfaceLockup)"/>
  <rect x="16.5" y="16.5" width="95" height="95" rx="27.5" stroke="#FAF6FF" stroke-opacity="0.16"/>
  <path d="M28 74L44 58H60L44 74L60 90H44L28 74Z" fill="#120C1D"/>
  <path d="M52 58L70 40H86L68 58L86 76H70L52 58Z" fill="#120C1D"/>

  <g stroke="#FAF6FF" stroke-width="10" stroke-linecap="round" stroke-linejoin="round">
    <path d="M154 32V96"/>
    <path d="M154 64L188 32"/>
    <path d="M154 64L190 96"/>

    <path d="M214 32V96"/>
    <path d="M214 32H250"/>
    <path d="M214 64H244"/>
    <path d="M214 96H250"/>

    <path d="M274 32V96"/>
    <path d="M274 96H308"/>

    <path d="M326 32L350 96"/>
    <path d="M374 32L350 96"/>

    <rect x="392" y="32" width="52" height="64" rx="18"/>

    <path d="M466 32V96"/>
    <path d="M466 32H496C508 32 516 40 516 52C516 64 508 72 496 72H466"/>
    <path d="M494 72L518 96"/>

    <path d="M538 32L560 58"/>
    <path d="M582 32L560 58"/>
    <path d="M560 58V96"/>
  </g>
</svg>
