<svg width="620" height="128" viewBox="0 0 620 128" fill="none" xmlns="http://www.w3.org/2000/svg">
  <defs>
    <linearGradient id="pulseKGradientLockup" x1="20" y1="18" x2="108" y2="112" gradientUnits="userSpaceOnUse">
      <stop stop-color="#67F0FF"/>
      <stop offset="0.52" stop-color="#85FFD7"/>
      <stop offset="1" stop-color="#DF7AFE"/>
    </linearGradient>
  </defs>

  <circle cx="28" cy="84" r="10" fill="url(#pulseKGradientLockup)"/>
  <path d="M52 24V104" stroke="url(#pulseKGradientLockup)" stroke-width="19" stroke-linecap="round"/>
  <path d="M58 64L92 24" stroke="url(#pulseKGradientLockup)" stroke-width="19" stroke-linecap="round" stroke-linejoin="round"/>
  <path d="M58 64L94 104" stroke="url(#pulseKGradientLockup)" stroke-width="19" stroke-linecap="round" stroke-linejoin="round"/>

  <g stroke="#FAF6FF" stroke-width="10" stroke-linecap="round" stroke-linejoin="round">
    <path d="M154 32V96"/>
    <path d="M154 64L188 32"/>
    <path d="M154 64L190 96"/>
    <path d="M214 32V96"/>
    <path d="M214 32H250"/>
    <path d="M214 64H244"/>
    <path d="M214 96H250"/>
    <path d="M274 32V96"/>
    <path d="M274 96H308"/>
    <path d="M326 32L350 96"/>
    <path d="M374 32L350 96"/>
    <rect x="392" y="32" width="52" height="64" rx="18"/>
    <path d="M466 32V96"/>
    <path d="M466 32H496C508 32 516 40 516 52C516 64 508 72 496 72H466"/>
    <path d="M494 72L518 96"/>
    <path d="M538 32L560 58"/>
    <path d="M582 32L560 58"/>
    <path d="M560 58V96"/>
  </g>
</svg>
