<svg width="620" height="128" viewBox="0 0 620 128" fill="none" xmlns="http://www.w3.org/2000/svg">
  <defs>
    <linearGradient id="sensorHaloAccentLockup" x1="64" y1="20" x2="64" y2="108" gradientUnits="userSpaceOnUse">
      <stop stop-color="#67F0FF"/>
      <stop offset="1" stop-color="#DF7AFE"/>
    </linearGradient>
  </defs>

  <g stroke="url(#sensorHaloAccentLockup)" stroke-width="4.2" stroke-linecap="round">
    <line x1="64" y1="12" x2="64" y2="20"/>
    <line x1="64" y1="12" x2="64" y2="20" transform="rotate(30 64 64)"/>
    <line x1="64" y1="12" x2="64" y2="20" transform="rotate(60 64 64)"/>
    <line x1="64" y1="12" x2="64" y2="20" transform="rotate(90 64 64)"/>
    <line x1="64" y1="12" x2="64" y2="20" transform="rotate(120 64 64)"/>
    <line x1="64" y1="12" x2="64" y2="20" transform="rotate(150 64 64)"/>
    <line x1="64" y1="12" x2="64" y2="20" transform="rotate(180 64 64)"/>
    <line x1="64" y1="12" x2="64" y2="20" transform="rotate(210 64 64)"/>
    <line x1="64" y1="12" x2="64" y2="20" transform="rotate(240 64 64)"/>
    <line x1="64" y1="12" x2="64" y2="20" transform="rotate(270 64 64)"/>
    <line x1="64" y1="12" x2="64" y2="20" transform="rotate(300 64 64)"/>
    <line x1="64" y1="12" x2="64" y2="20" transform="rotate(330 64 64)"/>
  </g>

  <circle cx="64" cy="64" r="42" stroke="#FAF6FF" stroke-width="5"/>
  <circle cx="64" cy="64" r="22" stroke="#FAF6FF" stroke-width="5"/>
  <circle cx="64" cy="64" r="8.5" fill="#FAF6FF"/>
  <path d="M47 52C42 57 42 71 47 76" stroke="url(#sensorHaloAccentLockup)" stroke-width="6" stroke-linecap="round"/>
  <path d="M81 52C86 57 86 71 81 76" stroke="url(#sensorHaloAccentLockup)" stroke-width="6" stroke-linecap="round"/>

  <g stroke="#FAF6FF" stroke-width="10" stroke-linecap="round" stroke-linejoin="round">
    <path d="M154 32V96"/>
    <path d="M154 64L188 32"/>
    <path d="M154 64L190 96"/>
    <path d="M214 32V96"/>
    <path d="M214 32H250"/>
    <path d="M214 64H244"/>
    <path d="M214 96H250"/>
    <path d="M274 32V96"/>
    <path d="M274 96H308"/>
    <path d="M326 32L350 96"/>
    <path d="M374 32L350 96"/>
    <rect x="392" y="32" width="52" height="64" rx="18"/>
    <path d="M466 32V96"/>
    <path d="M466 32H496C508 32 516 40 516 52C516 64 508 72 496 72H466"/>
    <path d="M494 72L518 96"/>
    <path d="M538 32L560 58"/>
    <path d="M582 32L560 58"/>
    <path d="M560 58V96"/>
  </g>
</svg>
